:SAMPLES-PER-SECOND 30
:FULLY-SPECIFIED
:DEGREES
338
root  45.7424 38.4947 0.88394 -146.995 -84.3394 148.335
RightUpLeg  -28.4923 -16.3586 -10.6549
RightLeg  48.9477 -5.98768 -7.66578
RightFoot  -1.52105 -0.730637 8.36371
RightToes  2.32829e-010 0 -3.6325e-017
Spine  32.6092 -0.380361 0.14619
Spine1  1.06908 0.0439082 -1.59926
HEad  -30.2771 5.54434 -6.44998
LeftShoulder1  11.0488 -17.4888 -45.887
LeftArm  -9.58615 -18.2994 -25.0904
LeftForeArm  18.7464 -15.8069 -5.22988
LeftHand  -0.244104 0.0205437 5.32207
RightShoulder  6.74451 12.2179 36.8868
RightArm  1.49009 19.0852 40.2059
RightForeArm  -5.67887 36.3144 8.57667
RightHand  -1.19319 2.28063 -18.1381
LeftUpLeg  -27.0034 29.1108 -9.82671
LeftLeg  21.9471 1.94637 1.20181
LeftFoot  -0.316493 -0.540348 5.61415
LeftToes  1.42787e-010 7.94111e-011 2.6399e-011
339
root  45.6697 38.4559 0.823076 -147.32 -84.632 149.686
RightUpLeg  -30.5755 -16.154 -9.4606
RightLeg  42.3225 -5.80945 -5.97667
RightFoot  -2.90174 -0.639622 8.42916
RightToes  2.32829e-010 0 -3.6325e-017
Spine  34.2716 -0.550896 0.425974
Spine1  1.03197 0.010548 -1.7887
HEad  -32.4166 5.44715 -6.56769
LeftShoulder1  11.2067 -17.877 -45.6878
LeftArm  -7.96111 -19.8877 -25.2411
LeftForeArm  16.1193 -19.9679 -4.41536
LeftHand  -0.244104 0.0205437 5.32207
RightShoulder  6.97063 12.5856 37.2973
RightArm  -0.225724 21.8114 39.912
RightForeArm  -7.58793 37.6867 9.10462
RightHand  -1.41123 3.11289 -19.3163
LeftUpLeg  -28.4327 28.8829 -10.0166
LeftLeg  22.5702 1.82685 1.17441
LeftFoot  -0.565244 -0.507354 5.41152
LeftToes  1.42787e-010 7.94111e-011 2.6399e-011
340
root  45.5739 38.3539 0.672013 -140.841 -85.1317 144.121
RightUpLeg  -31.612 -15.6026 -9.09065
RightLeg  35.3293 -3.27644 -2.76793
RightFoot  -3.96953 -0.686161 10.1699
RightToes  2.32829e-010 0 -3.6325e-017
Spine  35.7576 -0.743106 0.226434
Spine1  1.09104 -0.170752 -1.83547
HEad  -34.5781 5.15365 -6.67291
LeftShoulder1  11.4249 -18.2581 -45.7609
LeftArm  -8.22506 -21.4575 -25.0157
LeftForeArm  16.0056 -24.5318 -4.32461
LeftHand  -0.244104 0.0205437 5.32207
RightShoulder  7.12712 12.8274 37.6027
RightArm  -1.96012 24.2217 39.4785
RightForeArm  -8.88895 39.4754 9.75566
RightHand  -1.75333 4.38392 -20.8919
LeftUpLeg  -29.9269 28.2675 -10.4416
LeftLeg  23.631 1.67875 1.14796
LeftFoot  -0.947185 -0.476063 5.29328
LeftToes  1.42787e-010 7.94111e-011 2.6399e-011
341
root  45.4651 38.2119 0.434035 -124.94 -85.937 128.985
RightUpLeg  -31.8716 -14.678 -9.14576
RightLeg  29.5993 -0.461019 -0.490605
RightFoot  -3.43939 -0.745185 10.4542
RightToes  2.32829e-010 0 -3.6325e-017
Spine  37.2104 -0.995769 0.0529502
Spine1  1.06467 -0.519676 -1.52855
HEad  -36.5664 4.50757 -6.56514
LeftShoulder1  11.6516 -18.6393 -45.8664
LeftArm  -10.0276 -23.2093 -24.7958
LeftForeArm  18.4999 -28.8088 -5.22665
LeftHand  -0.244104 0.0205437 5.32207
RightShoulder  7.17207 12.9395 37.5782
RightArm  -3.93927 26.028 38.9508
RightForeArm  -9.25935 41.5331 10.4875
RightHand  -1.91569 4.95081 -21.5564
LeftUpLeg  -31.3313 27.047 -10.7513
LeftLeg  24.9795 1.44998 1.08334
LeftFoot  -1.31616 -0.439789 5.1016
LeftToes  1.42787e-010 7.94111e-011 2.6399e-011
342
root  45.3603 38.0467 0.1429 -96.3001 -86.7487 101.028
RightUpLeg  -32.1628 -13.4073 -9.06301
RightLeg  27.0331 0.216249 -0.0980903
RightFoot  -1.61695 -0.699614 8.12035
RightToes  2.32829e-010 0 -3.6325e-017
Spine  38.7613 -1.42675 0.680833
Spine1  0.657962 -0.948351 -1.0502
HEad  -38.1995 3.47449 -6.16797
LeftShoulder1  11.7867 -18.9761 -45.6935
LeftArm  -10.7236 -25.128 -25.0109
LeftForeArm  20.2845 -32.6116 -6.0443
LeftHand  -0.244104 0.0205437 5.32207
RightShoulder  7.12627 12.9839 37.1956
RightArm  -6.21779 27.0253 38.2152
RightForeArm  -10.085 43.9183 11.4309
RightHand  -1.90033 4.73768 -21.8181
LeftUpLeg  -32.7599 25.1345 -10.5039
LeftLeg  26.6486 1.32779 1.0721
LeftFoot  -1.635 -0.393058 4.74281
LeftToes  1.42787e-010 7.94111e-011 2.6399e-011
343
root  45.2542 37.8131 -0.173192 -56.9452 -86.7612 62.2388
RightUpLeg  -33.2784 -12.5387 -8.65726
RightLeg  28.4683 -1.06806 -0.872757
RightFoot  -0.283208 -0.501998 5.13188
RightToes  2.32829e-010 0 -3.6325e-017
Spine  40.2763 -2.07804 2.05497
Spine1  -0.132889 -1.3069 -0.829496
HEad  -39.6093 2.18925 -5.52835
LeftShoulder1  11.7997 -19.2323 -45.2067
LeftArm  -10.8195 -27.2769 -25.594
LeftForeArm  21.3137 -35.8536 -6.83158
LeftHand  -0.244104 0.0205437 5.32207
RightShoulder  7.03825 13.0139 36.6017
RightArm  -8.47479 27.6208 36.9202
RightForeArm  -12.58 46.44 12.6233
RightHand  -2.05709 4.95298 -23.0535
LeftUpLeg  -34.436 22.4697 -9.62291
LeftLeg  29.0998 1.68927 1.37122
LeftFoot  -2.18586 -0.333991 4.33358
LeftToes  1.42787e-010 7.94111e-011 2.6399e-011
344
root  45.1461 37.4954 -0.483741 -29.2964 -85.7938 34.954
RightUpLeg  -35.0281 -12.7245 -7.98308
RightLeg  32.1357 -2.4236 -1.8862
RightFoot  -0.530261 -0.335824 3.50181
RightToes  2.32829e-010 0 -3.6325e-017
Spine  41.5198 -2.73121 3.5946
Spine1  -0.818711 -1.4926 -0.885827
HEad  -41.1542 0.97694 -4.80183
LeftShoulder1  11.7425 -19.4491 -44.5305
LeftArm  -11.0891 -29.7245 -26.2908
LeftForeArm  22.449 -38.6365 -7.54912
LeftHand  -0.244104 0.0205437 5.32207
RightShoulder  6.91124 13.0053 35.8727
RightArm  -10.5556 28.5999 34.9065
RightForeArm  -15.8879 48.4043 13.7196
RightHand  -2.3982 5.87161 -24.6616
LeftUpLeg  -36.2621 19.4661 -8.36727
LeftLeg  32.2649 2.51222 2.0678
LeftFoot  -3.11756 -0.267116 3.97553
LeftToes  1.42787e-010 7.94111e-011 2.6399e-011
345
root  45.0523 37.1493 -0.776219 -18.2386 -84.8468 24.0271
RightUpLeg  -36.7151 -13.3906 -7.26333
RightLeg  35.701 -3.02504 -2.59138
RightFoot  -1.88163 -0.261975 3.01174
RightToes  2.32829e-010 0 -3.6325e-017
Spine  42.5034 -3.07785 4.69392
Spine1  -1.04861 -1.48119 -0.903908
HEad  -42.9482 0.0292631 -4.15516
LeftShoulder1  11.6684 -19.6814 -43.7643
LeftArm  -12.0075 -32.3332 -26.7972
LeftForeArm  24.1827 -41.0216 -8.16356
LeftHand  -0.244104 0.0205437 5.32207
RightShoulder  6.719 12.9104 34.9608
RightArm  -12.6842 30.3769 32.4608
RightForeArm  -18.6171 49.1728 14.2609
RightHand  -2.51631 6.28887 -24.9336
LeftUpLeg  -37.8825 17.0547 -7.15062
LeftLeg  35.4242 3.27347 2.86375
LeftFoot  -4.22851 -0.200989 3.6426
LeftToes  1.42787e-010 7.94111e-011 2.6399e-011
346
root  44.9747 36.8388 -1.04792 -13.2806 -84.4147 19.04
RightUpLeg  -38.0154 -13.7632 -6.50846
RightLeg  38.388 -3.20752 -2.99846
RightFoot  -3.21144 -0.205231 2.57728
RightToes  2.32829e-010 0 -3.6325e-017
Spine  43.4292 -3.07646 5.2599
Spine1  -1.09017 -1.32435 -0.712413
HEad  -44.8921 -0.598136 -3.71649
LeftShoulder1  11.5831 -19.9074 -42.9764
LeftArm  -13.399 -34.9053 -26.8128
LeftForeArm  25.7022 -42.9121 -8.67566
LeftHand  -0.244104 0.0205437 5.32207
RightShoulder  6.4741 12.7846 33.7883
RightArm  -15.0474 32.729 29.9692
RightForeArm  -20.9848 48.7638 14.1972
RightHand  -2.32722 5.82376 -24.0487
LeftUpLeg  -39.1771 15.8219 -6.13131
LeftLeg  38.1331 3.6282 3.42444
LeftFoot  -5.22416 -0.146087 3.32383
LeftToes  1.42787e-010 7.94111e-011 2.6399e-011
347
root  44.8997 36.5899 -1.28553 -9.5108 -84.2787 15.2156
RightUpLeg  -38.9977 -13.7936 -5.74638
RightLeg  40.5233 -3.36153 -3.36457
RightFoot  -4.07238 -0.155445 2.01257
RightToes  2.32829e-010 0 -3.6325e-017
Spine  44.3964 -3.01794 5.56524
Spine1  -1.38401 -1.16811 -0.508495
HEad  -46.8078 -0.918561 -3.48991
LeftShoulder1  11.4905 -20.0928 -42.2482
LeftArm  -15.01 -37.3646 -26.0894
LeftForeArm  26.3069 -44.2468 -9.09099
LeftHand  -0.244104 0.0205437 5.32207
RightShoulder  6.21592 12.7452 32.3007
RightArm  -17.6019 35.1787 27.5385
RightForeArm  -23.926 47.7359 13.8606
RightHand  -2.15685 5.32549 -23.3562
LeftUpLeg  -40.2456 15.375 -5.26346
LeftLeg  40.3379 3.6587 3.70877
LeftFoot  -5.89999 -0.113189 3.13199
LeftToes  1.42787e-010 7.94111e-011 2.6399e-011
